Coordinates
version=1
nRows=42
nColumns=38
inDegrees=no

Units are S.I. units (second, meters, Newtons, ...)
If the header above contains a line with 'inDegrees', this indicates whether rotational values are in degrees (yes) or radians (no).

endheader
time	pelvis_tilt	pelvis_list	pelvis_rotation	pelvis_tx	pelvis_ty	pelvis_tz	hip_flexion_r	hip_adduction_r	hip_rotation_r	knee_angle_r	ankle_angle_r	subtalar_angle_r	mtp_angle_r	hip_flexion_l	hip_adduction_l	hip_rotation_l	knee_angle_l	ankle_angle_l	subtalar_angle_l	mtp_angle_l	lumbar_extension	lumbar_bending	lumbar_rotation	arm_flex_r	arm_add_r	arm_rot_r	elbow_flex_r	pro_sup_r	wrist_flex_r	wrist_dev_r	arm_flex_l	arm_add_l	arm_rot_l	elbow_flex_l	pro_sup_l	wrist_flex_l	wrist_dev_l
25	0.0711438	1.32618	1.51021	0.735921	-0.250467	1.02069	0.418975	-0.0313718	0.00155491	0.422712	-0.225436	0	0	0.249134	-0.0657033	-0.126133	0.181204	-0.34987	0	0	-0.209878	0.00758211	0.0779625	0.41066	-0.486501	1.5708	0.57777	0.0861593	0	0	0.40363	-0.222745	1.02859	0.193448	0.650264	0	0
25.01	0.075121	1.32275	1.50647	0.735431	-0.249035	1.02134	0.412952	-0.0306828	-0.00131266	0.407613	-0.227906	0	0	0.24353	-0.0651482	-0.127424	0.164945	-0.35661	0	0	-0.197937	0.0104532	0.0741494	0.409196	-0.486516	1.5708	0.578768	0.0832885	0	0	0.398876	-0.221515	1.03155	0.188922	0.645964	0	0
25.02	0.079133	1.31971	1.50274	0.734916	-0.247692	1.02192	0.406885	-0.0302094	-0.00477691	0.392764	-0.231613	0	0	0.237613	-0.0646614	-0.128005	0.148504	-0.365437	0	0	-0.186752	0.013277	0.0705493	0.407849	-0.48657	1.5708	0.579634	0.0818484	0	0	0.394685	-0.219737	1.03459	0.183597	0.641664	0	0
25.03	0.0882085	1.32532	1.49411	0.734306	-0.246343	1.02312	0.389317	-0.0294568	-0.0116929	0.372348	-0.248475	0	0	0.219015	-0.0642928	-0.126634	0.122385	-0.390563	0	0	-0.184939	0.0103439	0.0794863	0.399496	-0.488262	1.5708	0.578709	0.0772343	0	0	0.434678	-0.135151	0.0997548	0.036705	1.5708	0	0
25.04	0.0908801	1.32232	1.49125	0.733908	-0.245231	1.02337	0.384957	-0.0292366	-0.0161953	0.360817	-0.250701	0	0	0.2146	-0.0638937	-0.127178	0.109837	-0.395481	0	0	-0.174329	0.0114917	0.0781909	0.396791	-0.488488	1.5708	0.579676	0.0772757	0	0	0.443678	-0.131175	0.0925637	0.0105326	1.5708	0	0
25.05	0.0929179	1.31974	1.48886	0.733548	-0.244241	1.02355	0.381343	-0.0292119	-0.020067	0.351366	-0.252187	0	0	0.210698	-0.0634678	-0.128235	0.099583	-0.398914	0	0	-0.164759	0.0128958	0.0770805	0.394683	-0.488887	1.5708	0.580579	0.0772245	0	0	0.447424	-0.128958	0.0886983	0	1.5708	0	0
25.06	0.0957624	1.31752	1.48567	0.733173	-0.243259	1.0237	0.377067	-0.0288039	-0.0231927	0.341203	-0.254329	0	0	0.206137	-0.0631432	-0.128696	0.0883241	-0.403596	0	0	-0.156194	0.0148664	0.0756862	0.393187	-0.489369	1.5708	0.581418	0.0769926	0	0	0.450081	-0.127102	0.0849156	0	1.5708	0	0
25.07	0.0984673	1.31565	1.4825	0.732857	-0.242414	1.02375	0.373134	-0.0284096	-0.0257245	0.33175	-0.255765	0	0	0.202237	-0.0630153	-0.129649	0.0792842	-0.406356	0	0	-0.147772	0.0163427	0.0765643	0.390471	-0.490369	1.5708	0.582228	0.0761412	0	0	0.44972	-0.125603	0.0854932	0	1.5708	0	0
25.08	0.10355	1.31692	1.47681	0.73259	-0.241561	1.02408	0.364492	-0.0275149	-0.0297639	0.31857	-0.262787	0	0	0.193806	-0.063216	-0.130471	0.0665586	-0.415368	0	0	-0.143359	0.0169593	0.082239	0.386052	-0.492783	1.5708	0.583446	0.0697626	0	0	0.449858	-0.122935	0.119307	0	1.5708	0	0
25.09	0.105717	1.31671	1.47422	0.732364	-0.240825	1.02419	0.35929	-0.0272215	-0.0331517	0.309591	-0.264869	0	0	0.188741	-0.0630001	-0.131771	0.0578803	-0.419088	0	0	-0.137603	0.0175065	0.0848155	0.383023	-0.493864	1.5708	0.584051	0.0675416	0	0	0.448478	-0.121409	0.139797	0	1.56359	0	0
25.1	0.106692	1.31631	1.47289	0.732162	-0.240185	1.02426	0.355299	-0.0271687	-0.0360013	0.302599	-0.265988	0	0	0.1849	-0.0626499	-0.132921	0.0511465	-0.421432	0	0	-0.132177	0.0177826	0.0867952	0.380498	-0.494521	1.5708	0.584329	0.0659126	0	0	0.447006	-0.120246	0.156036	0	1.54819	0	0
25.11	0.106868	1.31578	1.4722	0.732006	-0.239666	1.0243	0.35216	-0.0271654	-0.038492	0.29669	-0.266727	0	0	0.182093	-0.062322	-0.13379	0.0458922	-0.423244	0	0	-0.127055	0.0177256	0.088868	0.378242	-0.495001	1.5708	0.584479	0.0644476	0	0	0.445589	-0.119256	0.172441	0	1.53274	0	0
25.12	0.106065	1.31499	1.47244	0.731888	-0.239279	1.02429	0.349988	-0.0272887	-0.0408717	0.291966	-0.26728	0	0	0.180446	-0.0619203	-0.134206	0.0420547	-0.424629	0	0	-0.122062	0.0172747	0.0908706	0.376203	-0.495305	1.5708	0.584574	0.0630197	0	0	0.44441	-0.118422	0.188848	0	1.51694	0	0
25.13	0.104993	1.31416	1.47285	0.731762	-0.239032	1.02427	0.349033	-0.0275955	-0.0431443	0.289373	-0.266379	0	0	0.18004	-0.0616437	-0.135097	0.0408432	-0.42355	0	0	-0.117615	0.016487	0.0930033	0.374033	-0.495471	1.5708	0.58449	0.0676795	0	0	0.437267	-0.117801	0.304662	0	1.3963	0	0
25.14	0.102992	1.31377	1.47437	0.731685	-0.238861	1.02426	0.347959	-0.0282435	-0.0456156	0.28668	-0.266689	0	0	0.179236	-0.0610905	-0.134826	0.0390949	-0.424305	0	0	-0.11387	0.0157653	0.0942332	0.373004	-0.495509	1.5708	0.584727	0.0669106	0	0	0.438584	-0.117265	0.286364	0	1.4158	0	0
25.15	0.100818	1.31349	1.47601	0.731643	-0.238729	1.02424	0.347558	-0.0289455	-0.0475365	0.285275	-0.267025	0	0	0.178608	-0.0605468	-0.134433	0.0378021	-0.424921	0	0	-0.110633	0.0149985	0.0954013	0.372312	-0.495453	1.5708	0.584876	0.0658562	0	0	0.439897	-0.116917	0.268936	0	1.43462	0	0
25.16	0.0985089	1.31305	1.47778	0.731607	-0.238648	1.02421	0.347628	-0.0296773	-0.0486183	0.284157	-0.267409	0	0	0.178402	-0.0599791	-0.134057	0.0368623	-0.425269	0	0	-0.107604	0.0140688	0.096605	0.371755	-0.495373	1.5708	0.584991	0.0645341	0	0	0.441277	-0.116704	0.25219	0	1.45274	0	0
25.17	0.0959272	1.3118	1.47975	0.731578	-0.238591	1.02411	0.348621	-0.0302662	-0.0487188	0.283338	-0.268378	0	0	0.179375	-0.0593969	-0.134006	0.036416	-0.425784	0	0	-0.103823	0.012516	0.0995214	0.370244	-0.495275	1.5708	0.584394	0.0559704	0	0	0.441157	-0.116045	0.274662	0	1.43327	0	0
25.18	0.0948747	1.31182	1.48046	0.731516	-0.23852	1.02412	0.348046	-0.0305219	-0.0487054	0.282582	-0.268301	0	0	0.179194	-0.0590106	-0.134573	0.0364818	-0.42574	0	0	-0.101946	0.0115235	0.101154	0.369569	-0.495305	1.5708	0.584257	0.0553308	0	0	0.441041	-0.115835	0.292547	0	1.41554	0	0
25.19	0.0941205	1.31213	1.48102	0.731462	-0.23845	1.02417	0.347469	-0.0307995	-0.0481719	0.282248	-0.268184	0	0	0.178819	-0.0586126	-0.135173	0.0366083	-0.425608	0	0	-0.100516	0.0105876	0.102662	0.368964	-0.495391	1.5708	0.584162	0.0550247	0	0	0.441046	-0.115689	0.310875	0	1.39756	0	0
25.2	0.0944218	1.31301	1.48075	0.731425	-0.238341	1.02428	0.346569	-0.0308833	-0.0475264	0.282899	-0.267977	0	0	0.177959	-0.0585118	-0.135815	0.0368775	-0.425402	0	0	-0.0997156	0.00991932	0.104101	0.368347	-0.495511	1.5708	0.584043	0.0550831	0	0	0.441139	-0.115454	0.329607	0	1.37937	0	0
25.21	0.0953698	1.31431	1.48001	0.731393	-0.23822	1.02443	0.345271	-0.0309743	-0.0467132	0.283362	-0.267735	0	0	0.17672	-0.0585954	-0.136155	0.0372796	-0.425103	0	0	-0.0993788	0.00941626	0.1055	0.367715	-0.495726	1.5708	0.584014	0.0555915	0	0	0.441295	-0.11509	0.348805	0	1.36108	0	0
25.22	0.0962112	1.31633	1.48014	0.731271	-0.237969	1.02457	0.342647	-0.0314795	-0.0473141	0.283143	-0.267278	0	0	0.174691	-0.0584188	-0.136165	0.0377242	-0.424617	0	0	-0.0994031	0.00886931	0.106399	0.366647	-0.495983	1.5708	0.583989	0.0566675	0	0	0.441351	-0.114522	0.368463	0	1.34263	0	0
25.23	0.0977551	1.31783	1.47955	0.731185	-0.237755	1.02466	0.340375	-0.0314912	-0.0475654	0.282673	-0.266851	0	0	0.173337	-0.0585505	-0.135809	0.0384249	-0.423978	0	0	-0.0990382	0.00856501	0.107326	0.365473	-0.496064	1.5708	0.583724	0.0585785	0	0	0.441244	-0.113941	0.388552	0	1.32378	0	0
25.24	0.0997409	1.31877	1.4785	0.731133	-0.237577	1.02472	0.338523	-0.0311245	-0.0477315	0.281995	-0.266423	0	0	0.17265	-0.0589138	-0.135208	0.0392873	-0.423317	0	0	-0.0982924	0.00843296	0.108245	0.364139	-0.495982	1.5708	0.583197	0.0614957	0	0	0.440895	-0.113469	0.409075	0	1.30458	0	0
25.25	0.101668	1.31952	1.47758	0.731113	-0.237415	1.02476	0.337422	-0.030879	-0.0481551	0.282183	-0.265917	0	0	0.172215	-0.0593136	-0.134327	0.0402234	-0.422744	0	0	-0.0975227	0.00828057	0.109125	0.362689	-0.495735	1.5708	0.582323	0.0658719	0	0	0.440533	-0.113082	0.429831	0	1.28495	0	0
25.26	0.103677	1.32015	1.4765	0.731127	-0.237271	1.02479	0.336854	-0.0306206	-0.048496	0.282912	-0.265485	0	0	0.171978	-0.0597643	-0.133455	0.0412067	-0.42223	0	0	-0.0967669	0.00808012	0.110244	0.361031	-0.495405	1.5708	0.58114	0.072077	0	0	0.440214	-0.112807	0.450814	0	1.26488	0	0
25.27	0.105629	1.32071	1.47543	0.731156	-0.23714	1.0248	0.336441	-0.0302785	-0.0485124	0.283839	-0.265131	0	0	0.171884	-0.0602192	-0.132664	0.0422741	-0.421676	0	0	-0.0961234	0.00778292	0.111477	0.359177	-0.495082	1.5708	0.579946	0.0805349	0	0	0.439885	-0.112706	0.472328	0	1.24443	0	0
25.28	0.107172	1.32123	1.47469	0.731198	-0.237019	1.02481	0.336241	-0.0299939	-0.0482284	0.285151	-0.264907	0	0	0.17186	-0.0605798	-0.132	0.0433993	-0.421274	0	0	-0.0955634	0.00718654	0.113152	0.356872	-0.49496	1.5708	0.579056	0.091974	0	0	0.439773	-0.112527	0.494541	0	1.22372	0	0
25.29	0.108389	1.32166	1.47434	0.73125	-0.236893	1.02483	0.336167	-0.0298646	-0.0478738	0.286502	-0.264857	0	0	0.171975	-0.0608852	-0.131454	0.0444313	-0.421153	0	0	-0.0954142	0.00624657	0.115867	0.350569	-0.496159	1.57015	0.579066	0.107518	0	0	0.440194	-0.112064	0.517404	0	1.20276	0	0
25.3	0.109619	1.32285	1.47405	0.731315	-0.236772	1.02491	0.33544	-0.0299292	-0.0475293	0.288103	-0.264488	0	0	0.171309	-0.0611665	-0.131307	0.0454347	-0.420939	0	0	-0.09539	0.00645127	0.113681	0.355409	-0.494623	1.5708	0.578333	0.0915268	0	0	0.440532	-0.1125	0.494727	0	1.22382	0	0
25.31	0.110714	1.32427	1.47413	0.73136	-0.236698	1.02503	0.334375	-0.0299567	-0.047514	0.289548	-0.263801	0	0	0.170589	-0.0613399	-0.130708	0.0467217	-0.42054	0	0	-0.0963278	0.00620968	0.112753	0.356246	-0.494364	1.5708	0.578172	0.0792711	0	0	0.44186	-0.112345	0.473221	0	1.24499	0	0
25.32	0.11218	1.32564	1.47373	0.731412	-0.236644	1.02512	0.333321	-0.0299099	-0.0475712	0.290719	-0.263138	0	0	0.169919	-0.0616501	-0.130071	0.0480619	-0.420004	0	0	-0.0974764	0.00586367	0.112583	0.356609	-0.494339	1.5708	0.578121	0.069745	0	0	0.443553	-0.111874	0.452858	0	1.26627	0	0
25.33	0.114097	1.32697	1.47284	0.731465	-0.236611	1.02518	0.332157	-0.0296633	-0.0475438	0.291741	-0.262619	0	0	0.169336	-0.0620957	-0.129499	0.0494824	-0.419341	0	0	-0.0988375	0.0055873	0.112674	0.35682	-0.494422	1.5708	0.578059	0.0623479	0	0	0.445282	-0.111355	0.43345	0	1.28739	0	0
25.34	0.115995	1.32833	1.47199	0.731512	-0.236606	1.02524	0.330999	-0.0295276	-0.0472558	0.292444	-0.262164	0	0	0.168899	-0.0625245	-0.128912	0.0511543	-0.418587	0	0	-0.100502	0.0053245	0.112728	0.357032	-0.494525	1.5708	0.577924	0.0563724	0	0	0.447026	-0.11085	0.414635	0	1.30801	0	0
25.35	0.117624	1.3298	1.47149	0.731576	-0.236618	1.0253	0.329586	-0.0293061	-0.0465695	0.292848	-0.261561	0	0	0.16857	-0.0628778	-0.128354	0.0531736	-0.417722	0	0	-0.102526	0.00500667	0.112564	0.357294	-0.494477	1.5708	0.577564	0.0511977	0	0	0.44872	-0.110485	0.396157	0	1.32793	0	0
25.36	0.119527	1.33141	1.4708	0.73168	-0.236649	1.02539	0.32845	-0.0290646	-0.0460615	0.294284	-0.260781	0	0	0.168232	-0.0633575	-0.127769	0.0554116	-0.416845	0	0	-0.104866	0.00465761	0.112302	0.357618	-0.494336	1.5708	0.577271	0.0468848	0	0	0.450473	-0.110282	0.378059	0	1.34723	0	0
25.37	0.121089	1.33275	1.47024	0.731819	-0.23675	1.02544	0.327755	-0.0287671	-0.045467	0.295667	-0.260044	0	0	0.168329	-0.0638746	-0.126921	0.0578266	-0.415894	0	0	-0.107045	0.00418665	0.112196	0.358006	-0.494232	1.5708	0.577201	0.0434921	0	0	0.452266	-0.110174	0.360352	0	1.36599	0	0
25.38	0.122285	1.33377	1.46986	0.731971	-0.236896	1.02544	0.327274	-0.0283975	-0.044201	0.296448	-0.259484	0	0	0.168924	-0.0643841	-0.12583	0.060544	-0.414758	0	0	-0.109083	0.00371451	0.112161	0.35845	-0.494175	1.5708	0.577218	0.041066	0	0	0.453993	-0.110112	0.342987	0	1.38428	0	0
25.39	0.123692	1.33482	1.46928	0.732131	-0.237037	1.02543	0.326963	-0.0279935	-0.0428677	0.297666	-0.258855	0	0	0.169539	-0.064959	-0.124475	0.0633797	-0.413327	0	0	-0.111298	0.0033714	0.111997	0.35888	-0.494093	1.5708	0.577198	0.0396711	0	0	0.455578	-0.11013	0.325856	0	1.40209	0	0
25.4	0.126007	1.33602	1.46782	0.732308	-0.237193	1.02543	0.326874	-0.0273893	-0.041922	0.299806	-0.257985	0	0	0.170028	-0.0657793	-0.122925	0.0663823	-0.411646	0	0	-0.113977	0.00336048	0.111611	0.359479	-0.493948	1.5708	0.576924	0.038771	0	0	0.457036	-0.110249	0.309076	0	1.41958	0	0
25.41	0.128995	1.33761	1.46575	0.732503	-0.23745	1.02547	0.326628	-0.0266339	-0.0409606	0.302561	-0.256952	0	0	0.170417	-0.066743	-0.121154	0.0698811	-0.409792	0	0	-0.117534	0.00351066	0.111019	0.360527	-0.493803	1.5708	0.576555	0.0381002	0	0	0.458714	-0.110443	0.292736	0	1.43675	0	0
